 <svg  version="1.0" xmlns="http://www.w3.org/2000/svg"  width="450.000000pt" height="478.000000pt" viewBox="0 0 450.000000 478.000000"  preserveAspectRatio="xMidYMid meet">  <g transform="translate(0.000000,478.000000) scale(0.100000,-0.100000)" fill="#3d3d3d" stroke="none"> <path d="M2001 4566 c-48 -36 -47 -38 3 -32 55 7 59 9 61 34 2 24 -31 23 -64 -2z m29 -6 c0 -5 -5 -10 -11 -10 -5 0 -7 5 -4 10 3 6 8 10 11 10 2 0 4 -4 4 -10z"/> <path d="M2100 4550 c0 -5 9 -10 20 -10 11 0 20 5 20 10 0 6 -9 10 -20 10 -11 0 -20 -4 -20 -10z"/> <path d="M2040 4520 c-12 -8 -10 -10 10 -10 31 0 14 -19 -32 -35 -18 -6 -32 -16 -31 -23 2 -6 -3 -9 -11 -6 -7 3 -19 -2 -26 -11 -7 -8 -17 -15 -22 -15 -6 0 9 16 32 35 l41 34 -53 -5 c-34 -3 -58 -11 -66 -22 -36 -48 -42 -53 -61 -42 -23 12 -51 3 -51 -15 0 -7 -9 -15 -20 -18 -17 -4 -18 -2 -9 16 7 16 2 14 -17 -8 -15 -16 -30 -30 -34 -30 -3 0 -14 -8 -24 -17 -21 -21 -27 -23 -24 -5 2 6 -3 12 -9 11 -59 -5 -59 -5 -38 -14 20 -9 20 -9 0 -10 -11 -2 -23 -2 -28 -1 -4 0 -6 -2 -6 -6 3 -21 -2 -34 -11 -28 -6 4 -7 11 -4 17 4 7 2 8 -4 4 -7 -4 -12 -23 -12 -42 0 -20 -9 -47 -22 -64 -21 -29 -21 -31 -5 -62 17 -31 17 -32 12 -5 -3 15 -1 27 4 27 5 0 13 -25 16 -55 7 -51 25 -69 25 -24 0 10 4 19 10 19 5 0 6 -8 3 -17 -6 -16 -5 -16 10 -4 20 16 21 9 6 -22 -10 -21 -9 -21 10 2 12 13 21 28 21 35 0 19 74 93 88 89 7 -3 19 -2 27 1 9 3 17 6 20 6 3 1 20 7 39 15 46 19 51 19 35 -2 -9 -13 -6 -12 11 3 36 30 92 54 131 55 19 1 104 -10 189 -24 85 -15 170 -28 188 -30 17 -2 35 -7 39 -10 3 -4 14 -7 23 -7 37 0 120 -32 156 -61 21 -17 55 -55 76 -86 20 -30 45 -64 56 -76 10 -12 26 -40 34 -62 14 -35 14 -47 1 -94 -7 -30 -15 -57 -18 -59 -2 -2 2 -20 9 -40 7 -21 16 -53 20 -72 l6 -34 -32 31 c-18 16 -42 35 -53 41 -13 7 -15 12 -6 12 8 0 23 -7 33 -17 10 -9 18 -12 18 -7 0 15 -40 45 -50 39 -6 -4 -10 1 -10 10 0 8 -6 18 -14 21 -8 3 -12 13 -10 22 5 14 3 14 -6 -1 -11 -17 -13 -17 -48 3 -20 12 -52 22 -72 22 -19 0 -39 3 -45 6 -18 11 -140 9 -184 -4 -25 -7 -48 -11 -53 -8 -4 3 -14 2 -20 -3 -13 -8 -18 -9 -38 -12 -5 0 -10 -7 -10 -15 0 -8 -9 -17 -19 -21 -11 -3 -23 -15 -26 -26 -4 -10 -11 -17 -16 -14 -5 3 -6 0 -3 -8 4 -10 -6 -16 -33 -20 -78 -13 -98 -9 -110 22 -13 37 -49 60 -99 65 -21 2 -51 9 -66 15 -32 12 -98 5 -136 -15 -15 -8 -38 -14 -52 -14 -28 0 -70 -25 -70 -42 0 -7 12 -8 33 -3 64 14 147 17 147 5 0 -6 -4 -9 -9 -6 -14 9 -232 -22 -284 -40 -26 -9 -54 -25 -61 -36 -14 -19 -15 -19 -19 -2 -2 11 -3 -1 -1 -26 2 -25 5 -69 6 -97 2 -29 8 -53 13 -53 6 0 9 31 7 83 -2 45 -1 79 2 76 10 -10 9 -193 -2 -219 -9 -23 -11 -19 -22 37 -7 35 -17 60 -22 57 -12 -8 1 -109 20 -154 9 -19 19 -53 23 -75 6 -33 7 -28 6 28 -1 37 1 67 5 67 9 0 23 41 19 58 -1 10 6 9 34 -2 49 -21 261 -31 357 -17 106 15 143 34 163 85 26 65 63 116 85 116 21 0 41 -31 60 -97 7 -24 16 -43 20 -43 4 0 10 -8 14 -17 3 -10 9 -24 12 -32 4 -9 2 -11 -5 -7 -7 4 1 -16 16 -46 23 -42 38 -57 75 -75 44 -21 66 -51 53 -72 -7 -12 -30 -5 -65 19 -14 10 -42 20 -62 24 -31 6 -39 3 -50 -14 -7 -11 -18 -20 -24 -20 -19 0 -46 -50 -41 -73 3 -12 2 -31 -3 -42 -4 -11 -3 -31 2 -45 6 -16 6 -26 -1 -28 -20 -7 -11 -29 14 -40 34 -16 43 -15 62 3 20 21 47 15 51 -11 3 -18 -6 -24 -57 -38 -35 -10 -62 -23 -66 -34 -7 -15 -8 -15 -15 3 -7 16 -9 16 -9 3 -1 -17 -7 -19 -156 -38 -44 -6 -89 -12 -100 -15 -11 -2 -27 -4 -35 -4 -10 -1 -11 -4 -3 -12 12 -12 39 -8 153 21 25 7 86 10 137 8 77 -3 96 -7 115 -25 20 -18 29 -20 73 -13 78 14 85 13 85 -12 0 -19 -6 -23 -37 -25 -21 -1 -39 -7 -41 -12 -2 -6 -12 -11 -22 -11 -11 0 -24 -8 -30 -17 -10 -16 -10 -15 -5 4 4 16 2 21 -10 19 -9 -1 -20 -8 -25 -15 -4 -8 -13 -10 -19 -6 -7 4 -18 2 -26 -5 -7 -6 -19 -10 -27 -9 -37 5 -69 -2 -65 -13 2 -7 10 -12 16 -10 6 1 11 -3 11 -9 0 -7 10 -9 25 -7 13 3 22 1 19 -3 -3 -5 2 -9 10 -9 9 0 16 -7 16 -15 0 -8 4 -15 9 -15 22 0 66 23 89 45 13 14 30 21 39 18 8 -3 19 0 23 7 7 11 12 11 23 1 10 -7 26 -9 44 -5 25 7 27 6 14 -9 -7 -10 -22 -17 -32 -17 -12 0 -19 -7 -19 -19 0 -10 -7 -21 -15 -25 -8 -3 -15 -12 -15 -21 0 -8 -6 -15 -14 -15 -11 0 -13 -9 -9 -34 4 -28 1 -36 -15 -45 -20 -11 -20 -13 -6 -53 8 -22 12 -43 10 -45 -8 -8 -26 35 -30 69 -2 18 -6 32 -10 31 -3 -2 -18 -3 -33 -3 -24 -1 -26 -2 -10 -11 9 -6 15 -15 11 -20 -3 -5 -1 -16 6 -24 10 -12 8 -12 -14 -2 -13 6 -29 25 -35 42 -9 27 -10 27 -6 3 3 -16 -1 -33 -11 -42 -20 -21 -25 -20 -17 1 5 14 1 13 -24 -5 -23 -16 -30 -28 -26 -42 5 -18 2 -19 -18 -12 -13 4 -33 8 -44 8 -11 -1 -23 3 -26 8 -9 12 -42 -1 -34 -14 9 -14 -8 -13 -23 2 -14 14 -16 32 -2 23 8 -5 70 20 70 29 0 2 -10 2 -22 -2 -21 -5 -22 -4 -9 11 8 10 9 17 3 17 -6 0 -14 -5 -17 -10 -9 -15 -48 9 -41 26 3 8 0 14 -7 14 -7 1 4 9 23 20 30 17 33 25 8 21 -5 0 -8 4 -8 9 0 19 -42 28 -69 14 -30 -16 -44 -9 -31 16 8 15 6 17 -13 13 -22 -4 -22 -4 2 17 21 18 22 23 10 31 -7 5 -19 9 -25 9 -16 0 -56 46 -54 61 4 25 0 39 -10 39 -6 0 -8 -11 -4 -25 4 -15 2 -25 -5 -25 -6 0 -11 -8 -11 -17 0 -15 2 -16 10 -3 5 8 11 12 14 9 3 -3 -1 -14 -9 -25 -13 -16 -16 -17 -25 -4 -9 12 -10 10 -8 -10 2 -17 8 -24 21 -22 9 2 17 -2 17 -8 0 -5 -7 -10 -15 -10 -8 0 -15 -6 -15 -14 0 -8 -4 -18 -10 -21 -6 -3 -7 1 -4 9 4 11 0 16 -15 16 -13 0 -21 6 -21 18 0 13 -2 14 -9 3 -5 -7 -7 -23 -4 -35 3 -20 3 -20 -6 2 -12 27 -27 28 -40 4 -7 -14 -5 -27 9 -50 11 -18 24 -32 30 -32 5 0 10 -6 10 -12 0 -7 16 -31 36 -53 135 -151 179 -195 191 -195 7 0 22 -9 33 -20 11 -11 23 -21 28 -21 27 -5 51 -21 57 -39 5 -16 10 -18 20 -10 12 10 31 9 130 -4 6 -1 17 -6 25 -11 8 -6 29 -15 45 -20 19 -7 29 -16 27 -27 -2 -15 2 -15 50 -3 29 8 54 12 57 10 2 -3 0 -5 -6 -5 -6 0 -9 -9 -6 -20 4 -13 14 -20 30 -20 16 0 22 -4 17 -11 -5 -9 1 -10 20 -5 28 7 28 9 -1 -43 -1 -2 -13 -5 -27 -6 -30 -4 -48 -14 -42 -23 6 -10 77 -6 85 5 3 4 20 15 36 23 17 8 34 19 38 25 4 5 5 -3 1 -18 -6 -26 -4 -28 17 -25 18 2 23 8 21 26 -2 12 0 22 5 21 18 -3 36 1 30 7 -13 13 34 64 59 64 14 0 23 4 20 9 -3 4 6 6 19 3 14 -2 25 -8 25 -13 0 -5 5 -9 11 -9 5 0 7 5 4 10 -3 6 3 10 14 10 12 0 20 6 19 13 -4 16 48 13 66 -5 8 -8 10 -21 5 -33 -4 -11 -8 -31 -8 -43 -1 -30 -27 -85 -49 -105 -9 -9 -36 -32 -59 -52 -23 -20 -45 -46 -48 -57 -4 -11 -13 -17 -21 -14 -7 3 -16 0 -20 -6 -4 -7 -3 -8 4 -4 22 13 12 -13 -10 -28 -12 -9 -17 -16 -10 -16 10 0 9 -4 -2 -16 -22 -22 -35 -47 -35 -70 -1 -34 -13 -84 -21 -84 -12 0 -21 -30 -26 -84 -3 -27 -9 -57 -14 -67 -7 -12 -6 -20 1 -25 7 -4 7 -9 1 -13 -5 -3 -12 -31 -16 -63 l-7 -56 33 -7 c42 -9 118 -53 118 -68 0 -8 -3 -9 -8 -1 -8 12 -70 44 -84 44 -5 0 -6 -10 -2 -22 12 -35 6 -70 -16 -100 -11 -15 -20 -30 -20 -33 0 -4 -11 -21 -24 -38 -13 -18 -39 -61 -58 -97 -19 -36 -45 -82 -56 -103 -12 -20 -43 -78 -68 -127 -47 -90 -64 -104 -64 -49 0 42 -33 52 -158 47 -66 -2 -94 0 -80 5 24 10 193 15 218 7 10 -3 14 0 11 10 -2 8 -9 47 -16 87 -16 88 -33 145 -49 158 -6 6 -17 22 -25 37 -8 16 -61 73 -118 128 -100 98 -103 102 -102 143 2 45 -6 130 -13 143 -2 5 -6 27 -7 49 -1 22 -8 49 -15 60 -7 11 -20 41 -30 68 -10 26 -32 63 -49 81 -18 18 -41 51 -53 72 -75 141 -84 167 -84 249 0 80 -9 92 -37 48 -10 -16 -23 -34 -30 -41 -15 -16 -17 -26 -3 -17 6 3 10 -1 10 -9 0 -9 -6 -16 -14 -16 -8 0 -17 -7 -20 -16 -9 -23 -8 -24 17 -24 17 0 19 -2 8 -9 -8 -5 -19 -7 -25 -5 -7 3 -17 -11 -24 -29 -16 -44 -15 -52 3 -37 13 11 13 9 0 -23 -8 -19 -19 -57 -26 -84 -6 -26 -13 -57 -16 -68 -3 -11 -8 -37 -10 -57 -3 -21 -9 -38 -14 -38 -5 0 -7 11 -5 25 4 19 0 25 -13 25 -12 0 -21 -14 -29 -46 -15 -56 -62 -105 -95 -98 -12 2 -23 8 -25 14 -5 14 -55 13 -70 -2 -6 -6 -15 -9 -18 -5 -4 4 22 20 57 36 61 28 109 62 109 75 0 4 -12 11 -26 17 -25 9 -26 10 -10 28 20 22 98 46 121 38 11 -5 15 0 15 16 0 16 -3 18 -9 9 -5 -8 -17 -12 -27 -10 -15 3 -13 9 19 40 20 21 37 46 37 57 0 17 -3 18 -35 8 -20 -6 -54 -28 -78 -50 -23 -21 -54 -45 -69 -53 -16 -8 -28 -19 -28 -24 0 -21 -4 -25 -32 -43 -16 -9 -26 -22 -22 -28 5 -8 9 -8 14 1 4 7 15 10 25 8 13 -2 7 -10 -23 -33 -21 -16 -45 -41 -51 -55 -7 -14 -25 -50 -41 -80 -16 -30 -29 -65 -29 -77 -1 -12 -5 -24 -11 -28 -5 -3 -23 -52 -41 -108 -17 -56 -37 -116 -45 -134 -8 -17 -14 -38 -14 -46 0 -9 -5 -19 -11 -22 -6 -4 -8 -14 -5 -22 3 -8 1 -11 -4 -8 -6 3 -10 1 -10 -6 0 -19 -51 -89 -65 -89 -6 0 -18 -11 -25 -25 -7 -13 -28 -29 -45 -35 -18 -6 -41 -20 -51 -32 l-19 -21 33 17 c42 22 117 35 134 25 9 -6 5 -9 -12 -9 -14 0 -38 -9 -55 -21 -57 -38 -210 -114 -235 -115 -13 -1 -26 -6 -28 -13 -2 -6 -15 -24 -28 -40 -13 -16 -21 -30 -18 -33 2 -3 -11 -17 -31 -32 -41 -32 -44 -27 -11 17 39 54 86 146 136 269 39 95 44 116 29 107 -10 -5 -19 -18 -19 -29 0 -30 -34 -41 -116 -38 l-75 3 3 40 3 39 63 11 c69 13 84 8 101 -35 l10 -25 0 24 c1 13 4 22 7 19 10 -11 68 53 109 121 6 9 20 30 33 46 19 24 25 26 32 15 6 -10 3 -20 -11 -33 -10 -10 -19 -23 -19 -29 0 -6 -11 -26 -25 -43 -13 -18 -22 -35 -19 -38 3 -3 -4 -11 -16 -17 -12 -7 -19 -18 -16 -26 3 -8 1 -14 -5 -14 -11 0 -50 -86 -52 -115 0 -11 -6 -27 -13 -35 -7 -8 -16 -27 -19 -43 -4 -15 -11 -30 -16 -33 -5 -3 -9 -9 -9 -14 0 -14 44 4 81 33 20 16 26 25 14 21 -19 -7 -19 -7 -2 13 9 11 17 23 17 27 0 5 11 22 25 40 14 17 29 36 33 41 14 20 137 159 165 187 20 20 27 34 22 48 -4 12 -2 20 5 20 6 0 8 -6 5 -12 -4 -7 1 -4 9 7 9 11 14 25 12 32 -3 7 0 15 6 19 7 5 8 2 3 -6 -6 -9 -4 -11 4 -6 7 5 10 14 7 21 -3 8 2 19 10 25 31 26 12 29 -26 4 -32 -21 -46 -25 -74 -20 -47 9 -55 25 -24 50 14 12 28 29 31 38 11 30 68 59 109 56 20 -2 34 0 31 5 -3 5 4 18 15 30 11 12 30 47 42 77 11 30 28 67 35 83 14 27 8 36 -12 16 -6 -6 -17 -12 -24 -13 -25 -5 -54 -19 -61 -29 -3 -6 -28 -19 -55 -29 -46 -17 -49 -17 -62 -1 -12 17 -13 16 -7 -3 5 -17 2 -23 -18 -26 -14 -3 -27 0 -30 6 -3 7 -5 7 -5 -1 -1 -7 -11 -13 -23 -13 -19 0 -20 -2 -8 -10 10 -6 2 -7 -25 -3 -22 3 -46 10 -52 16 -9 7 -13 5 -13 -7 0 -9 -4 -16 -10 -16 -5 0 -10 5 -10 10 0 15 -29 12 -46 -5 -14 -13 -13 -15 5 -15 12 0 21 -6 21 -15 0 -9 -9 -15 -24 -15 -14 0 -27 -4 -31 -10 -3 -6 -15 -6 -30 0 -26 10 -57 -12 -35 -25 8 -5 5 -11 -7 -20 -10 -7 -21 -11 -25 -9 -9 6 -88 -29 -88 -38 0 -5 -8 -8 -17 -8 -9 0 -32 -5 -50 -12 -28 -10 -36 -10 -42 1 -7 11 -11 9 -20 -7 -15 -28 -14 -35 5 -28 15 6 15 4 3 -10 -8 -10 -15 -12 -17 -5 -2 6 -8 9 -13 6 -5 -4 -6 2 -2 11 4 11 2 15 -4 11 -6 -4 -11 -26 -11 -49 -1 -36 -7 -48 -36 -75 -22 -20 -41 -30 -51 -27 -20 8 -10 19 18 19 11 0 22 7 24 15 3 10 2 11 -4 3 -5 -6 -17 -11 -28 -10 -21 2 -28 -9 -125 -195 l-50 -98 0 -266 0 -266 45 -51 c51 -58 55 -74 23 -86 -32 -12 -54 -2 -32 13 15 11 14 15 -10 42 l-25 29 -1 -152 0 -153 1867 0 1866 0 -18 20 c-16 17 -16 20 -3 15 9 -4 19 -13 22 -21 5 -12 66 -14 386 -14 l380 0 0 321 0 322 -37 -6 c-26 -5 -33 -3 -23 3 8 5 25 10 38 10 21 0 22 4 22 85 0 83 -1 86 -55 191 -31 59 -71 130 -91 158 -19 28 -49 72 -67 98 -18 26 -36 48 -40 48 -5 0 -5 -5 -1 -12 4 -7 3 -8 -5 -4 -6 4 -9 11 -6 16 3 4 -3 14 -12 21 -12 10 -14 10 -9 2 4 -7 3 -13 -3 -13 -5 0 -16 -3 -25 -6 -12 -5 -16 0 -16 22 0 15 -10 39 -22 53 -19 21 -20 23 -3 11 18 -14 19 -14 6 2 -7 10 -63 51 -125 92 -83 55 -121 75 -152 77 -34 4 -41 1 -36 -11 4 -12 2 -13 -9 -2 -7 6 -26 12 -41 12 -38 0 -35 14 5 26 23 7 41 6 65 -3 17 -7 32 -11 32 -9 0 9 -62 36 -71 31 -4 -3 -10 -1 -14 5 -3 5 -1 10 6 10 10 0 10 3 2 11 -8 8 -18 6 -37 -7 -14 -11 -24 -23 -22 -29 2 -5 -1 -18 -6 -27 -6 -13 -5 -18 4 -18 7 0 19 -9 26 -21 11 -17 11 -20 0 -13 -16 10 -31 14 -90 21 -30 3 -54 13 -65 26 -16 18 -16 20 -1 14 9 -3 21 0 27 7 6 8 32 19 56 26 48 13 60 30 23 30 -13 0 -45 7 -73 16 -75 23 -105 25 -112 9 -3 -8 -14 -15 -24 -15 -11 0 -19 -7 -19 -17 0 -15 -2 -16 -10 -3 -15 23 -12 28 20 35 42 9 38 33 -7 40 -21 3 -49 13 -63 21 -14 8 -34 18 -45 21 -11 4 -54 24 -95 47 -144 76 -212 108 -235 110 -13 0 -21 4 -18 8 2 5 -2 8 -10 8 -8 0 -22 9 -32 20 -10 11 -24 20 -32 20 -7 0 -21 4 -31 9 -9 5 -24 12 -33 14 -9 3 -24 29 -33 59 -10 29 -28 70 -41 90 -13 20 -27 48 -31 62 -3 15 -26 44 -51 64 l-44 38 -6 188 -6 187 28 60 c27 55 30 58 46 43 25 -22 54 -10 80 34 12 20 33 49 47 64 14 15 29 47 33 70 4 24 12 61 18 83 6 22 11 84 11 138 0 110 -14 153 -55 163 -27 7 -34 31 -11 40 8 3 12 13 9 25 -3 11 0 19 6 19 7 0 10 3 8 8 -3 4 -1 57 3 118 10 134 -6 272 -40 349 -10 22 -23 63 -30 90 -7 28 -16 55 -20 60 -4 6 -10 33 -12 61 -3 33 -14 63 -30 85 -14 19 -30 50 -36 69 l-11 35 3 -32 c3 -39 0 -40 -25 -12 -13 16 -16 26 -9 39 8 15 6 17 -8 14 -12 -4 -21 5 -30 26 -21 48 -39 61 -67 50 -22 -8 -24 -7 -22 18 2 21 -2 26 -17 24 -11 -2 -15 1 -11 7 3 6 -1 11 -9 11 -18 0 -63 43 -59 56 2 6 -10 20 -27 32 -16 13 -30 18 -30 12 0 -5 -7 -10 -15 -10 -8 0 -15 4 -15 10 0 5 -19 15 -42 22 -24 7 -49 20 -56 30 -7 10 -18 18 -24 18 -7 0 -4 -6 6 -13 15 -11 7 -13 -49 -14 -36 -1 -63 2 -60 6 10 18 -110 27 -135 11z m297 -57 c-4 -3 -10 -3 -14 0 -3 4 0 7 7 7 7 0 10 -3 7 -7z m-84 -20 c-3 -15 9 -17 23 -4 5 5 21 1 39 -10 17 -10 23 -19 15 -19 -13 0 -13 -1 0 -10 8 -5 10 -10 5 -10 -6 0 -19 6 -30 14 -11 7 -47 17 -79 21 -68 8 -86 13 -86 27 0 5 26 8 58 6 39 -2 56 -7 55 -15z m-136 0 c-4 -3 -10 -3 -14 0 -3 4 0 7 7 7 7 0 10 -3 7 -7z m-147 -43 c0 -5 -2 -10 -4 -10 -3 0 -8 5 -11 10 -3 6 -1 10 4 10 6 0 11 -4 11 -10z m400 -11 c0 -5 -4 -9 -10 -9 -5 0 -10 7 -10 16 0 8 5 12 10 9 6 -3 10 -10 10 -16z m68 10 c-10 -5 -18 -17 -18 -24 0 -8 -4 -15 -10 -15 -5 0 -9 6 -7 12 2 15 28 37 42 37 6 0 2 -4 -7 -10z m-231 -25 c-3 -3 -12 -4 -19 -1 -8 3 -5 6 6 6 11 1 17 -2 13 -5z m270 -51 c-4 -3 -10 -3 -14 0 -3 4 0 7 7 7 7 0 10 -3 7 -7z m-887 -127 c0 -3 -5 -8 -12 -12 -7 -4 -8 -3 -4 4 7 12 16 16 16 8z m55 -36 c3 -5 4 -10 1 -10 -3 0 -8 5 -11 10 -3 6 -4 10 -1 10 3 0 8 -4 11 -10z m890 -479 c22 -5 33 -9 24 -10 -19 -1 -19 -39 0 -51 11 -6 11 -8 0 -12 -8 -3 -32 4 -54 16 -44 23 -135 27 -233 12 -53 -9 -54 -9 -50 15 2 20 10 25 48 30 68 9 220 9 265 0z m-730 -21 c92 -13 120 -34 119 -88 -1 -64 -31 -130 -67 -149 -42 -22 -351 -32 -396 -13 -35 14 -56 55 -65 128 -10 78 13 95 169 126 40 8 172 5 240 -4z m645 -30 c10 -7 -5 -10 -53 -10 -43 0 -66 4 -62 10 8 13 95 13 115 0z m-333 -42 c-3 -7 -5 -2 -5 12 0 14 2 19 5 13 2 -7 2 -19 0 -25z m-101 12 c-16 -5 -33 -15 -37 -22 -6 -9 -9 -10 -9 -1 0 15 29 33 55 32 14 -1 11 -3 -9 -9z m741 -12 c-3 -8 -6 -5 -6 6 -1 11 2 17 5 13 3 -3 4 -12 1 -19z m-437 -33 c0 -14 -4 -25 -10 -25 -5 0 -10 11 -10 25 0 14 5 25 10 25 6 0 10 -11 10 -25z m-175 -35 c9 -17 27 -35 41 -41 15 -5 24 -15 21 -22 -7 -19 34 -19 49 1 10 14 7 20 -25 40 l-36 23 65 -5 c36 -3 71 -5 78 -5 18 -1 14 -21 -5 -21 -52 0 44 -25 187 -48 l45 -8 -55 -7 c-94 -12 -150 -9 -150 8 0 8 -3 15 -7 16 -5 0 -18 2 -30 3 -13 2 -23 -3 -23 -10 0 -7 10 -15 23 -17 12 -2 -3 -5 -34 -6 -97 -2 -126 17 -159 104 -13 35 -4 31 15 -5z m665 -99 c0 -11 -8 -6 -25 14 -32 39 -32 55 0 25 14 -13 25 -31 25 -39z m-273 -28 c-4 -3 -10 -3 -14 0 -3 4 0 7 7 7 7 0 10 -3 7 -7z m-73 -12 c4 -5 0 -12 -6 -14 -7 -3 0 -6 15 -6 16 -1 62 -14 104 -31 82 -33 87 -34 78 -21 -3 5 -1 12 4 16 12 7 61 -44 61 -63 0 -7 4 -11 9 -8 10 7 9 -13 -1 -30 -4 -6 -10 -26 -13 -45 -3 -19 -10 -35 -16 -37 -5 -2 -9 -25 -9 -50 0 -28 -4 -42 -8 -34 -11 16 -42 5 -42 -14 0 -8 -6 -17 -14 -20 -13 -5 -18 -84 -5 -84 12 0 5 -29 -8 -34 -7 -3 -13 -18 -13 -33 0 -35 -9 -47 -37 -51 -22 -3 -32 11 -15 22 5 3 10 26 11 52 0 26 3 50 6 52 3 3 -1 12 -8 20 -9 13 -9 14 1 8 6 -4 12 -3 12 2 0 6 -11 13 -25 16 -14 4 -25 13 -25 20 0 18 -118 98 -132 90 -5 -3 -7 -11 -5 -18 3 -6 -4 -12 -14 -12 -12 0 -18 5 -15 13 3 7 0 13 -7 14 -9 0 -9 2 1 6 18 7 15 21 -8 28 -25 8 -27 45 -2 46 10 0 12 3 4 6 -6 2 -10 9 -6 14 3 5 -18 32 -47 59 -52 49 -53 52 -41 82 9 25 9 34 -1 40 -6 4 38 8 100 8 61 0 114 -4 117 -9z m336 -66 l0 -30 -13 25 c-15 28 -11 72 4 48 5 -7 9 -26 9 -43z m-63 8 c-4 -3 -7 0 -7 7 0 7 3 10 7 7 3 -4 3 -10 0 -14z m163 -84 c0 -6 -6 -9 -14 -6 -8 3 -17 1 -20 -6 -2 -7 -5 -4 -5 6 -1 11 6 17 19 17 11 0 20 -5 20 -11z m-41 -56 c-7 -10 -15 -20 -16 -22 -2 -2 -3 5 -3 17 0 14 6 22 16 22 14 0 15 -3 3 -17z m26 -73 c3 -5 4 -10 1 -10 -3 0 -8 5 -11 10 -3 6 -4 10 -1 10 3 0 8 -4 11 -10z m5 -50 c11 -11 20 -32 20 -47 -1 -26 -1 -26 -11 -8 -6 11 -25 32 -42 48 -27 25 -28 27 -8 27 11 0 30 -9 41 -20z m-73 -82 c-3 -8 -6 -5 -6 6 -1 11 2 17 5 13 3 -3 4 -12 1 -19z m-417 -169 c12 -9 12 -10 -4 -5 -13 5 -17 2 -12 -9 8 -21 -3 -45 -20 -45 -8 0 -14 -4 -14 -10 0 -5 -14 -8 -32 -6 -23 2 -32 8 -33 24 -1 19 0 20 19 6 25 -17 39 -18 34 -2 -4 10 29 54 42 57 3 0 12 -4 20 -10z m-670 -143 c0 -9 -30 -14 -35 -6 -4 6 3 10 14 10 12 0 21 -2 21 -4z m-195 -46 c3 -5 4 -10 1 -10 -3 0 -8 5 -11 10 -3 6 -4 10 -1 10 3 0 8 -4 11 -10z m289 -44 c-2 -6 -14 -17 -25 -24 -12 -8 -19 -10 -17 -5 3 4 7 15 11 24 3 9 12 16 20 16 8 0 13 -5 11 -11z m403 -23 c-4 -3 -10 -3 -14 0 -3 4 0 7 7 7 7 0 10 -3 7 -7z m-432 -33 c3 -5 -1 -10 -9 -10 -8 0 -18 5 -21 10 -3 6 1 10 9 10 8 0 18 -4 21 -10z m7 -42 c-7 -7 -12 -8 -12 -2 0 6 3 14 7 17 3 4 9 5 12 2 2 -3 -1 -11 -7 -17z m418 -10 c0 -18 -2 -20 -9 -8 -6 8 -7 18 -5 22 9 14 14 9 14 -14z m-78 -30 c-6 -6 -7 0 -4 19 5 21 7 23 10 9 2 -10 0 -22 -6 -28z m-32 -3 c5 3 10 1 10 -4 0 -6 -4 -11 -9 -11 -18 0 -41 12 -41 22 0 6 6 5 15 -2 8 -6 19 -9 25 -5z m-227 -50 c-3 -9 -8 -14 -10 -11 -3 3 -2 9 2 15 9 16 15 13 8 -4z m694 -222 c-4 -3 -7 0 -7 7 0 7 3 10 7 7 3 -4 3 -10 0 -14z m-120 -70 c-4 -3 -10 -3 -14 0 -3 4 0 7 7 7 7 0 10 -3 7 -7z m353 -113 c0 -5 -9 -6 -20 -3 -11 3 -17 9 -15 14 7 10 35 1 35 -11z m150 -105 c17 -9 30 -20 30 -25 0 -17 -20 -11 -48 15 -31 29 -24 32 18 10z m-1422 -50 c10 -34 8 -38 -24 -70 -19 -19 -39 -35 -43 -35 -15 0 -21 45 -11 79 20 70 60 83 78 26z m1409 18 c-4 -3 -10 -3 -14 0 -3 4 0 7 7 7 7 0 10 -3 7 -7z m-1500 -25 c-3 -8 -6 -5 -6 6 -1 11 2 17 5 13 3 -3 4 -12 1 -19z m1748 -59 c5 -6 4 -9 -4 -9 -7 0 -9 -5 -6 -10 4 -6 11 -8 16 -5 5 4 17 1 26 -5 15 -9 11 -10 -20 -6 -22 3 -35 1 -32 -5 4 -5 -10 0 -29 12 -39 23 -54 39 -36 39 6 0 9 4 5 9 -6 11 66 -7 80 -20z m-335 -15 c0 -14 7 -33 16 -41 10 -11 13 -24 9 -42 -13 -51 -22 -43 -29 24 -3 28 -8 58 -11 68 -4 10 -2 17 4 17 6 0 11 -12 11 -26z m154 -10 c24 -23 19 -27 -9 -8 -14 9 -25 18 -25 20 0 10 20 3 34 -12z m-1537 -41 c-4 -3 -7 0 -7 7 0 7 3 10 7 7 3 -4 3 -10 0 -14z m1813 2 c17 -9 30 -18 30 -20 0 -6 -52 16 -64 27 -16 13 3 9 34 -7z m-210 -9 c0 -3 -5 -8 -12 -12 -7 -4 -8 -3 -4 4 7 12 16 16 16 8z m-1593 -28 c-3 -8 -6 -5 -6 6 -1 11 2 17 5 13 3 -3 4 -12 1 -19z m1787 -3 c-4 -8 -10 -13 -15 -10 -4 3 -6 12 -3 20 4 8 10 13 15 10 4 -3 6 -12 3 -20z m-623 -28 c-10 -9 -11 -8 -5 6 3 10 9 15 12 12 3 -3 0 -11 -7 -18z m789 11 c0 -5 -9 -8 -20 -8 -10 0 -24 -9 -30 -20 -16 -30 -37 -25 -32 8 3 25 7 28 43 28 21 -1 39 -4 39 -8z m164 -66 c6 -10 -53 -46 -61 -38 -4 3 -1 6 5 6 7 0 12 6 12 14 0 20 34 34 44 18z m-2216 -141 c-1 -42 4 -94 10 -116 l12 -40 -25 29 c-14 16 -26 34 -26 40 -1 6 -2 18 -3 26 0 8 -9 14 -18 14 -10 -1 -18 3 -18 8 0 6 11 7 25 4 14 -4 25 -3 25 2 0 4 -10 9 -22 9 -13 1 -24 7 -26 13 -2 5 -12 10 -23 10 -17 0 -24 11 -20 34 1 5 -5 6 -14 2 -9 -3 -14 -2 -11 3 6 9 56 21 56 13 0 -3 -8 -11 -17 -18 -16 -12 -16 -13 -2 -14 19 0 40 23 64 70 18 34 18 34 26 11 5 -13 8 -57 7 -100z m2222 104 c0 -8 -4 -15 -10 -15 -5 0 -10 7 -10 15 0 8 5 15 10 15 6 0 10 -7 10 -15z m-2610 -11 c-8 -8 -23 -20 -34 -25 -13 -7 -9 -1 9 15 34 29 43 33 25 10z m290 5 c0 -5 -6 -7 -12 -4 -7 4 -5 0 4 -8 18 -14 14 -27 -7 -27 -10 0 -14 33 -6 48 4 7 21 0 21 -9z m2169 -39 c-13 -56 -107 -116 -165 -105 -39 7 -44 25 -15 54 10 10 22 28 26 40 6 21 16 26 28 15 5 -6 0 -15 -30 -48 -10 -11 -10 -16 0 -24 9 -8 21 -2 45 22 32 33 32 33 12 51 -27 25 -10 35 56 32 l51 -2 -8 -35z m-1778 8 l12 -23 -24 20 c-13 11 -26 21 -28 22 -2 2 3 3 12 3 9 0 22 -10 28 -22z m1044 -18 c0 -44 -29 -54 -46 -16 -16 33 -5 58 23 54 19 -2 23 -9 23 -38z m-1150 -6 c18 -28 14 -54 -9 -54 -15 0 -36 47 -29 68 7 19 19 14 38 -14z m2045 -3 c0 -13 -25 -20 -40 -11 -10 6 -8 9 6 13 31 8 34 7 34 -2z m-2650 -18 c0 -7 -11 -13 -24 -13 -13 0 -27 -6 -29 -12 -3 -8 -6 -5 -6 6 -1 13 -6 16 -18 11 -12 -4 -14 -3 -8 3 21 20 85 24 85 5z m490 2 c0 -8 -4 -15 -10 -15 -5 0 -7 7 -4 15 4 8 8 15 10 15 2 0 4 -7 4 -15z m197 -2 c-4 -3 -7 0 -7 7 0 7 3 10 7 7 3 -4 3 -10 0 -14z m43 -8 c0 -18 -4 -23 -15 -19 -11 5 -14 1 -9 -12 5 -16 4 -16 -5 -4 -8 11 -7 18 4 26 8 6 15 16 15 23 0 6 2 11 5 11 3 0 5 -11 5 -25z m2020 5 c0 -5 -7 -10 -16 -10 -8 0 -12 5 -9 10 3 6 10 10 16 10 5 0 9 -4 9 -10z m-3163 -27 c-4 -3 -10 -3 -14 0 -3 4 0 7 7 7 7 0 10 -3 7 -7z m231 -45 c24 -14 31 -23 21 -26 -8 -3 -17 -10 -21 -16 -10 -14 -28 11 -28 37 0 10 -4 15 -10 12 -5 -3 -10 -1 -10 4 0 16 8 14 48 -11z m3212 -12 c0 -3 -4 -8 -10 -11 -5 -3 -10 -1 -10 4 0 6 5 11 10 11 6 0 10 -2 10 -4z m-3530 -41 c-7 -8 -18 -15 -24 -14 -28 3 -36 -3 -37 -28 0 -16 -3 -22 -6 -15 -2 6 -8 10 -13 7 -4 -3 -13 2 -20 10 -7 8 -11 15 -8 15 2 0 28 9 58 20 67 24 65 23 50 5z m865 -57 c17 -1 30 -9 30 -15 0 -7 -4 -12 -10 -10 -5 1 -9 5 -8 8 1 4 -8 6 -21 5 -13 0 -22 -4 -20 -7 7 -12 -98 -73 -130 -75 -47 -4 -104 14 -116 36 -6 11 -17 20 -24 20 -8 0 -19 7 -26 15 -21 25 8 18 41 -9 16 -14 49 -28 74 -32 44 -6 49 -4 103 39 33 26 61 42 67 37 6 -5 24 -10 40 -12z m1707 -49 c15 -29 18 -30 18 -11 0 15 6 22 18 21 10 0 12 -3 5 -6 -7 -2 -13 -13 -13 -24 0 -12 -11 -24 -27 -30 -26 -10 -54 -9 -186 7 l-47 6 21 29 c12 17 30 29 42 29 12 0 29 5 37 10 8 6 38 8 65 7 45 -4 52 -7 67 -38z m75 24 c-4 -3 -10 -3 -14 0 -3 4 0 7 7 7 7 0 10 -3 7 -7z m28 -13 c3 -5 -1 -10 -10 -10 -9 0 -13 5 -10 10 3 6 8 10 10 10 2 0 7 -4 10 -10z m557 -33 c35 -5 47 -3 52 8 3 9 17 14 33 14 24 -2 25 -2 6 -6 -40 -8 -28 -33 15 -32 35 0 92 17 65 18 -7 1 -13 5 -13 10 0 14 21 7 60 -18 26 -17 29 -22 13 -18 -13 3 -25 2 -27 -1 -4 -7 -148 2 -221 13 -23 4 -52 16 -65 26 l-25 20 30 -14 c17 -8 51 -17 77 -20z m474 -24 c-10 -10 -19 5 -10 18 6 11 8 11 12 0 2 -7 1 -15 -2 -18z m-707 -10 c-57 -67 -114 -123 -123 -123 -5 0 3 14 19 30 16 17 23 30 17 30 -7 0 -12 5 -12 11 0 6 7 9 15 5 8 -3 21 4 29 16 13 18 64 58 75 58 3 0 -6 -12 -20 -27z m-1639 1 c24 -12 29 -19 19 -25 -31 -19 -59 -4 -59 32 0 12 2 12 40 -7z m80 1 c15 -18 7 -18 -40 0 l-35 13 31 1 c17 1 37 -6 44 -14z m2060 1 c0 -3 -5 -8 -12 -12 -7 -4 -8 -3 -4 4 7 12 16 16 16 8z m-2182 -24 c2 -7 -3 -12 -12 -12 -9 0 -16 7 -16 16 0 17 22 14 28 -4z m802 -2 c0 -5 -2 -10 -4 -10 -3 0 -8 5 -11 10 -3 6 -1 10 4 10 6 0 11 -4 11 -10z m1567 -7 c-4 -3 -7 0 -7 7 0 7 3 10 7 7 3 -4 3 -10 0 -14z m30 -10 c-4 -3 -10 -3 -14 0 -3 4 0 7 7 7 7 0 10 -3 7 -7z m-2690 -15 c4 -7 9 -22 10 -32 2 -11 8 -26 15 -33 6 -7 9 -16 6 -18 -9 -9 -90 74 -83 84 9 15 42 14 52 -1z m2663 -52 c-17 -25 -33 -46 -36 -46 -7 0 38 84 50 92 22 14 17 -2 -14 -46z m-1590 4 c-13 -11 -26 -18 -29 -14 -3 3 2 10 12 15 9 6 17 17 17 26 0 13 3 14 12 5 9 -9 6 -16 -12 -32z m-960 -4 c27 -12 38 -49 20 -71 -8 -10 -8 -14 2 -18 7 -3 0 -6 -15 -6 -24 -1 -26 1 -17 18 14 27 4 45 -35 67 -61 33 -23 42 45 10z m332 -13 c36 -32 12 -103 -35 -103 -49 0 -75 64 -40 102 20 22 51 23 75 1z m675 -60 c-4 -3 -10 -3 -14 0 -3 4 0 7 7 7 7 0 10 -3 7 -7z m1396 -32 c3 -14 1 -18 -9 -14 -17 6 -18 -9 -1 -26 10 -10 9 -11 -3 -6 -9 3 -21 19 -27 35 -10 28 -10 30 12 30 14 0 25 -7 28 -19z m-596 -51 l28 -8 -31 -1 c-17 -1 -51 -8 -76 -17 -53 -17 -134 -16 -131 3 2 8 -4 10 -15 6 -14 -6 -15 -4 -5 9 10 11 35 15 107 16 52 0 107 -3 123 -8z m780 -7 c-4 -3 -7 0 -7 7 0 7 3 10 7 7 3 -4 3 -10 0 -14z m-3927 -7 c0 -2 2 -11 6 -19 5 -14 -29 -24 -119 -32 -20 -2 -43 -7 -50 -11 -9 -6 -8 -3 1 8 20 25 93 58 130 58 17 0 32 -2 32 -4z m3905 -26 c-3 -5 1 -10 9 -10 24 0 21 -96 -4 -138 -22 -35 -78 -75 -93 -65 -5 3 -7 31 -3 65 6 58 25 107 54 141 16 18 48 24 37 7z m-2897 -44 c17 -10 15 -42 -5 -74 l-17 -27 22 19 c12 11 22 14 22 9 0 -10 -24 -25 -42 -27 -3 -1 -9 -4 -13 -8 -10 -10 -152 37 -190 64 -19 12 -35 30 -35 38 0 14 18 16 123 15 68 -1 129 -5 135 -9z m1655 -10 c18 -7 41 -23 51 -35 11 -11 27 -21 38 -21 10 0 24 -11 30 -25 8 -19 14 -22 20 -13 6 10 8 9 8 -4 0 -9 -5 -20 -10 -23 -6 -4 -8 -10 -5 -15 3 -4 -2 -10 -10 -14 -11 -4 -13 1 -9 22 6 34 2 38 -67 85 -55 38 -58 38 -130 33 -51 -3 -59 -3 -27 2 26 5 50 11 54 15 10 10 20 9 57 -7z m-166 -3 c-4 -3 -10 -3 -14 0 -3 4 0 7 7 7 7 0 10 -3 7 -7z m1055 -4 c10 -5 18 -19 18 -30 0 -25 -30 -79 -45 -79 -5 0 -44 12 -85 27 -76 26 -127 60 -113 74 16 15 200 21 225 8z m-1962 -49 c0 -5 -9 -10 -20 -10 -11 0 -20 5 -20 10 0 6 9 10 20 10 11 0 20 -4 20 -10z m-543 -17 c-4 -3 -7 0 -7 7 0 7 3 10 7 7 3 -4 3 -10 0 -14z m-3 -35 c-3 -4 -9 -8 -15 -8 -5 0 -9 4 -9 8 0 5 7 9 15 9 8 0 12 -4 9 -9z m1803 -25 c-4 -3 -10 -3 -14 0 -3 4 0 7 7 7 7 0 10 -3 7 -7z m12 -29 c14 -12 -19 -1 -35 12 -18 14 -18 14 6 3 14 -6 27 -13 29 -15z m1278 0 c-3 -3 -12 -4 -19 -1 -8 3 -5 6 6 6 11 1 17 -2 13 -5z m-1919 -51 c-12 -12 -57 -41 -102 -64 -44 -23 -92 -51 -105 -63 l-24 -21 24 36 c22 36 112 108 172 140 23 12 34 14 43 5 10 -9 8 -16 -8 -33z m45 40 c-7 -2 -19 -2 -25 0 -7 3 -2 5 12 5 14 0 19 -2 13 -5z m34 -30 c-4 -3 -7 0 -7 7 0 7 3 10 7 7 3 -4 3 -10 0 -14z m-2117 -33 c11 -11 20 -28 19 -37 0 -14 -2 -13 -9 5 -13 30 -37 38 -59 18 -17 -16 -19 -16 -24 3 -2 11 -2 22 1 25 12 13 53 5 72 -14z m1251 3 c12 -16 12 -17 -1 -6 -8 6 -26 13 -40 16 l-25 4 26 2 c15 0 33 -7 40 -16z m-62 -7 c18 -21 -47 -89 -117 -122 -32 -15 -70 -39 -86 -53 l-29 -26 19 34 c10 18 34 45 53 60 19 14 57 47 85 73 57 53 59 54 75 34z m1975 -11 c11 -8 18 -17 15 -19 -2 -2 -15 4 -28 15 -27 22 -15 26 13 4z m-899 -19 c19 -8 53 -33 75 -56 38 -39 39 -41 23 -60 -22 -25 -37 -26 -24 -2 15 29 -20 77 -74 102 -25 11 -51 18 -57 14 -7 -4 -8 -3 -4 4 9 15 19 15 61 -2z m-1540 -26 c3 -5 1 -10 -4 -10 -6 0 -11 5 -11 10 0 6 2 10 4 10 3 0 8 -4 11 -10z m2357 -5 c-2 -6 -9 -9 -14 -7 -6 1 -18 -3 -27 -10 -15 -12 -15 -11 -1 6 14 18 13 19 -3 13 -10 -4 -16 -3 -12 2 7 13 61 8 57 -4z m123 5 c3 -5 4 -10 1 -10 -3 0 -8 5 -11 10 -3 6 -4 10 -1 10 3 0 8 -4 11 -10z m-3155 -14 c-4 -4 -16 -4 -26 2 -16 9 -14 10 8 9 15 -1 23 -6 18 -11z m2963 -18 c-6 -11 -45 -10 -62 1 -10 6 -1 9 26 8 23 -1 39 -5 36 -9z m-2603 -34 c0 -9 -6 -14 -13 -11 -8 3 -18 2 -24 -1 -13 -9 -38 -59 -47 -94 -8 -37 -108 -121 -138 -116 -28 4 -34 29 -17 80 11 34 65 95 87 99 4 1 21 3 37 5 52 6 54 7 48 17 -8 13 25 37 49 37 10 0 18 -7 18 -16z m2774 -4 c5 -5 15 -6 22 -3 10 4 14 -4 14 -31 0 -20 -4 -36 -8 -36 -5 0 -7 15 -4 33 4 26 2 30 -9 20 -20 -20 -51 -15 -84 13 l-30 25 45 -7 c25 -4 49 -10 54 -14z m63 -17 c-4 -3 -10 -3 -14 0 -3 4 0 7 7 7 7 0 10 -3 7 -7z m38 -23 c3 -5 4 -10 1 -10 -3 0 -8 5 -11 10 -3 6 -4 10 -1 10 3 0 8 -4 11 -10z m-871 -29 c-2 -3 -12 3 -22 13 -16 17 -16 18 5 5 12 -7 20 -15 17 -18z m-762 -128 c35 -31 10 -103 -36 -103 -30 0 -46 18 -46 53 0 61 41 87 82 50z m1828 14 c0 -2 -9 -12 -19 -21 -19 -17 -19 -17 -16 1 2 10 4 19 4 21 1 3 31 2 31 -1z m-3604 -42 c126 -13 124 -12 124 -50 0 -28 -4 -35 -20 -35 -13 0 -18 -5 -14 -15 9 -22 -4 -18 -38 10 -28 24 -46 30 -77 25 -7 -1 -24 1 -37 4 -20 5 -24 13 -24 42 0 26 4 35 13 31 8 -3 40 -8 73 -12z m2922 -2 c2 -7 -1 -13 -8 -13 -6 0 -8 5 -5 10 3 6 -3 10 -14 10 -11 0 -25 -8 -30 -17 -6 -10 -11 -13 -11 -7 -1 30 58 45 68 17z m629 -20 c-4 -3 -7 0 -7 7 0 7 3 10 7 7 3 -4 3 -10 0 -14z m-729 -12 c-3 -15 15 -41 29 -41 10 0 12 -6 7 -22 -9 -33 -29 -53 -78 -78 -34 -19 -51 -22 -89 -16 -43 7 -47 9 -41 29 11 36 58 106 75 112 9 3 27 1 40 -4 l24 -10 -24 0 c-13 -1 -22 -4 -19 -7 3 -3 23 -2 44 2 l39 7 -45 15 c-41 14 -43 16 -20 22 27 7 60 2 58 -9z m-1149 -55 c0 -6 -3 -5 -6 2 -2 6 -9 10 -14 6 -5 -3 -9 5 -9 18 1 22 1 22 15 4 8 -11 15 -25 14 -30z m203 17 c-5 -31 -27 -53 -51 -53 -10 1 -5 7 12 16 15 8 27 23 27 33 0 15 8 31 15 31 1 0 0 -12 -3 -27z m-80 -47 c4 3 8 0 8 -6 0 -6 -10 -8 -27 -4 -46 12 -93 34 -93 44 0 5 23 -2 52 -15 28 -13 55 -22 60 -19z m-1083 -46 c10 0 32 -7 47 -15 16 -8 39 -15 52 -15 37 0 90 27 97 49 7 25 20 27 29 6 3 -8 16 -15 28 -16 22 0 22 -1 3 -8 -12 -5 -23 -4 -27 3 -5 7 -8 5 -8 -6 0 -9 -5 -20 -11 -24 -8 -4 -9 1 -4 17 l8 24 -19 -23 c-23 -28 -115 -41 -172 -24 -20 6 -50 14 -65 17 -15 3 -45 21 -65 41 l-37 35 62 -30 c34 -17 71 -31 82 -31z m286 -30 c3 -5 1 -10 -4 -10 -6 0 -11 5 -11 10 0 6 2 10 4 10 3 0 8 -4 11 -10z"/> <path d="M2225 4440 c4 -6 11 -8 16 -5 14 9 11 15 -7 15 -8 0 -12 -5 -9 -10z"/> <path d="M1688 3633 c45 -6 40 -17 -15 -32 -50 -13 -113 -54 -113 -73 0 -6 -7 -20 -17 -30 -18 -20 -24 -18 85 -24 23 -1 53 -5 66 -8 15 -4 26 -1 28 6 2 6 12 12 22 14 11 2 16 -2 12 -11 -7 -18 35 -3 72 25 13 11 32 20 40 20 13 0 12 3 -3 20 -16 18 -16 20 -2 20 12 0 14 5 9 21 -11 28 -102 59 -167 57 -35 -1 -41 -2 -17 -5z m4 -143 c19 -8 17 -9 -12 -4 -46 8 -54 17 -45 51 l7 28 13 -33 c8 -18 24 -37 37 -42z"/> <path d="M1574 3588 l-19 -23 23 19 c21 18 27 26 19 26 -2 0 -12 -10 -23 -22z"/> <path d="M1542 3548 c-14 -14 -16 -42 -3 -34 7 5 23 46 17 46 -1 0 -7 -5 -14 -12z"/> <path d="M3433 1503 c4 -3 10 -3 14 0 3 4 0 7 -7 7 -7 0 -10 -3 -7 -7z"/> <path d="M770 1360 c0 -7 3 -10 7 -7 3 4 3 10 0 14 -4 3 -7 0 -7 -7z"/> <path d="M1234 1225 c-18 -14 -18 -14 4 -8 12 3 22 9 22 14 0 12 -3 11 -26 -6z"/> <path d="M1913 1013 c4 -3 10 -3 14 0 3 4 0 7 -7 7 -7 0 -10 -3 -7 -7z"/> <path d="M1913 983 c4 -3 10 -3 14 0 3 4 0 7 -7 7 -7 0 -10 -3 -7 -7z"/> <path d="M4163 813 c-7 -2 -13 -10 -13 -17 0 -7 -9 -21 -20 -31 -13 -12 -19 -29 -18 -54 1 -31 5 -32 11 -4 1 4 14 19 29 33 14 14 29 37 32 53 6 27 3 30 -21 20z"/> <path d="M770 385 c0 -8 2 -15 4 -15 2 0 6 7 10 15 3 8 1 15 -4 15 -6 0 -10 -7 -10 -15z"/> <path d="M3618 423 c7 -3 16 -2 19 1 4 3 -2 6 -13 5 -11 0 -14 -3 -6 -6z"/> <path d="M3123 133 c4 -3 10 -3 14 0 3 4 0 7 -7 7 -7 0 -10 -3 -7 -7z"/> <path d="M3023 63 c4 -3 10 -3 14 0 3 4 0 7 -7 7 -7 0 -10 -3 -7 -7z"/> <path d="M1702 4443 c4 -22 24 -27 31 -9 3 8 -2 16 -14 19 -15 4 -19 1 -17 -10z"/> <path d="M1676 4412 c-3 -5 -1 -14 3 -20 6 -10 10 -10 20 1 9 12 8 16 -3 20 -9 4 -17 3 -20 -1z"/> <path d="M1799 4173 c-13 -16 -12 -17 4 -4 9 7 17 15 17 17 0 8 -8 3 -21 -13z"/> <path d="M1475 4150 c3 -5 8 -10 11 -10 2 0 4 5 4 10 0 6 -5 10 -11 10 -5 0 -7 -4 -4 -10z"/> <path d="M1461 4122 c-1 -12 -7 -25 -15 -28 -9 -3 -16 -31 -20 -80 -4 -41 -10 -82 -13 -91 -4 -10 -2 -14 5 -10 6 4 13 21 17 37 4 17 10 28 14 25 9 -5 31 38 31 62 0 9 8 22 18 30 9 8 11 12 4 8 -6 -3 -19 0 -27 9 -8 8 -11 16 -6 18 4 2 5 12 0 23 -7 19 -8 19 -8 -3z m-14 -64 c-3 -8 -6 -5 -6 6 -1 11 2 17 5 13 3 -3 4 -12 1 -19z"/> <path d="M1485 4120 c3 -5 8 -10 11 -10 3 0 2 5 -1 10 -3 6 -8 10 -11 10 -3 0 -2 -4 1 -10z"/> <path d="M1392 3997 c-14 -40 -15 -67 -3 -67 10 0 15 13 26 68 9 42 -8 41 -23 -1z"/> <path d="M1340 3950 c0 -7 3 -10 7 -7 3 4 3 10 0 14 -4 3 -7 0 -7 -7z"/> <path d="M1357 3923 c-4 -3 -7 -14 -7 -24 0 -22 36 -14 45 9 5 14 4 15 -6 5 -18 -18 -32 -16 -25 2 6 16 3 19 -7 8z"/> <path d="M1367 3806 c-4 -11 -5 -21 -2 -24 3 -3 5 0 5 7 0 7 4 10 9 6 5 -3 13 0 17 6 4 7 3 9 -4 5 -5 -3 -12 -1 -14 6 -3 7 -7 5 -11 -6z"/> <path d="M2403 3813 c4 -3 10 -3 14 0 3 4 0 7 -7 7 -7 0 -10 -3 -7 -7z"/> <path d="M1361 3731 c-8 -5 -9 -11 -3 -15 5 -3 12 1 16 9 6 17 6 18 -13 6z"/> <path d="M1306 3673 c-6 -14 -5 -15 5 -6 7 7 10 15 7 18 -3 3 -9 -2 -12 -12z"/> <path d="M1357 3673 c-4 -3 -7 -11 -7 -17 0 -6 5 -5 12 2 6 6 9 14 7 17 -3 3 -9 2 -12 -2z"/> <path d="M1290 3563 c0 -27 4 -54 9 -62 15 -23 23 40 12 102 0 4 -5 7 -11 7 -5 0 -10 -21 -10 -47z"/> <path d="M1277 3203 c-8 -17 -6 -63 3 -63 13 0 32 48 24 61 -6 11 -21 12 -27 2z"/> <path d="M1359 3175 c-3 -5 3 -46 12 -90 13 -62 17 -71 17 -40 0 48 -21 144 -29 130z"/> <path d="M1904 3169 c-37 -10 -60 -34 -45 -44 16 -9 132 26 128 39 -5 14 -44 17 -83 5z"/> <path d="M1624 3001 c-37 -35 -40 -42 -41 -94 -1 -32 3 -55 8 -52 5 4 6 -1 3 -9 -3 -9 -2 -16 3 -16 5 0 14 17 19 38 7 30 14 38 35 40 22 3 26 8 25 32 -1 15 -5 25 -10 22 -5 -3 -7 2 -3 11 3 10 2 17 -4 17 -6 0 -6 8 1 21 19 34 6 31 -36 -10z m43 -78 c-4 -3 -10 -3 -14 0 -3 4 0 7 7 7 7 0 10 -3 7 -7z"/> <path d="M1357 2923 c-12 -11 -8 -23 8 -23 8 0 15 7 15 15 0 16 -12 20 -23 8z"/> <path d="M1630 2880 c0 -5 5 -10 11 -10 5 0 7 5 4 10 -3 6 -8 10 -11 10 -2 0 -4 -4 -4 -10z"/> <path d="M1426 2721 c-4 -7 -5 -15 -2 -18 9 -9 19 4 14 18 -4 11 -6 11 -12 0z"/> <path d="M1492 2650 c-7 -12 -8 -20 -2 -20 5 0 10 5 10 10 0 6 7 10 16 10 8 0 12 5 9 10 -9 15 -19 12 -33 -10z"/> <path d="M1805 2620 c3 -5 11 -10 16 -10 6 0 7 5 4 10 -3 6 -11 10 -16 10 -6 0 -7 -4 -4 -10z"/> <path d="M2153 2573 c4 -3 10 -3 14 0 3 4 0 7 -7 7 -7 0 -10 -3 -7 -7z"/> <path d="M1868 2541 c-15 -18 -15 -19 3 -24 15 -4 19 0 19 19 0 29 -1 29 -22 5z"/> <path d="M2180 2550 c0 -7 3 -10 7 -7 3 4 3 10 0 14 -4 3 -7 0 -7 -7z"/> <path d="M1921 2454 c0 -11 3 -14 6 -6 3 7 2 16 -1 19 -3 4 -6 -2 -5 -13z"/> <path d="M1550 2150 c0 -7 3 -10 7 -7 3 4 3 10 0 14 -4 3 -7 0 -7 -7z"/> <path d="M2560 2120 c0 -5 5 -10 11 -10 5 0 7 5 4 10 -3 6 -8 10 -11 10 -2 0 -4 -4 -4 -10z"/> <path d="M2515 2110 c4 -6 11 -8 16 -5 14 9 11 15 -7 15 -8 0 -12 -5 -9 -10z"/> <path d="M2373 2013 c4 -3 10 -3 14 0 3 4 0 7 -7 7 -7 0 -10 -3 -7 -7z"/> <path d="M2463 2013 c4 -3 10 -3 14 0 3 4 0 7 -7 7 -7 0 -10 -3 -7 -7z"/> <path d="M2399 1991 c11 -7 11 -9 0 -14 -10 -4 -10 -6 2 -6 9 -1 19 6 23 14 4 11 -1 15 -17 15 -16 0 -18 -3 -8 -9z"/> <path d="M2443 1993 c4 -3 10 -3 14 0 3 4 0 7 -7 7 -7 0 -10 -3 -7 -7z"/> <path d="M2366 1973 c-6 -14 -5 -15 5 -6 7 7 10 15 7 18 -3 3 -9 -2 -12 -12z"/> <path d="M2433 1963 c4 -3 10 -3 14 0 3 4 0 7 -7 7 -7 0 -10 -3 -7 -7z"/> <path d="M2393 1948 c1 -7 -4 -12 -10 -10 -18 3 -16 -17 2 -24 8 -4 12 -10 9 -15 -3 -5 2 -6 11 -2 13 4 14 8 4 14 -11 6 -10 9 4 14 14 6 14 9 2 21 -17 17 -26 18 -22 2z"/> <path d="M2218 1943 c7 -3 16 -2 19 1 4 3 -2 6 -13 5 -11 0 -14 -3 -6 -6z"/> <path d="M2283 1913 c4 -3 10 -3 14 0 3 4 0 7 -7 7 -7 0 -10 -3 -7 -7z"/> <path d="M2345 1890 c-19 -8 -19 -9 3 -9 12 -1 22 4 22 9 0 6 -1 10 -2 9 -2 0 -12 -4 -23 -9z"/> <path d="M1420 1870 c0 -7 3 -10 7 -7 3 4 3 10 0 14 -4 3 -7 0 -7 -7z"/> <path d="M1371 1704 c0 -11 3 -14 6 -6 3 7 2 16 -1 19 -3 4 -6 -2 -5 -13z"/> <path d="M1032 1688 c6 -17 75 -28 93 -14 13 9 10 11 -12 11 -16 0 -41 4 -56 8 -22 6 -28 5 -25 -5z"/> <path d="M3563 1623 c4 -3 10 -3 14 0 3 4 0 7 -7 7 -7 0 -10 -3 -7 -7z"/> <path d="M742 1553 c-10 -17 -9 -22 5 -27 22 -9 28 0 16 26 l-10 23 -11 -22z"/> <path d="M3660 1510 c-12 -8 -11 -10 8 -11 12 -1 27 -2 34 -3 6 -1 13 5 16 12 4 14 -36 16 -58 2z"/> <path d="M403 1373 c4 -3 10 -3 14 0 3 4 0 7 -7 7 -7 0 -10 -3 -7 -7z"/> </g> </svg> 